# File created by Blade
# Date/Time:  Tue Apr 07 21:25:57 2015
# Frame Rate: 120.000 fps
#------------------------------------------------------
:FULLY-SPECIFIED
:DEGREES
410
root 22.486172 32.607677 5.507366 36.792853 -86.755360 -4.302107
Spine -2.105615 -5.422007 -0.375610
Head -6.013354 -1.068316 4.978685
LeftShoulder 2.900160 22.527640 29.558037
LeftArm 92.171167 -2.589427 -76.722678
LeftForeArm -46.969379 -0.000000 32.703188
LeftHand 9.424309 0.000000 -16.565510
LeftHandThumb1 -26.253704 0.000000 33.147579
RightShoulder 6.833705 21.343486 -24.593033
RightArm 45.846979 -4.018183 84.619431
RightForeArm 41.009787 -0.000000 38.612855
RightHand 7.419046 0.000000 15.063684
RightHandThumb1 -24.326973 -0.000000 -32.862282
LeftUpLeg -38.292627 -1.716399 -0.658440
LeftLeg -0.196591 -0.000000 0.000000
LeftFoot 2.879574 7.600753 -13.260256
LeftToeBase -9.792803 -0.000000 0.000000
RightUpLeg -45.318390 4.294943 0.430672
RightLeg 11.269468 -0.000000 -0.000000
RightFoot 0.678780 -11.611129 4.464113
RightToeBase -5.529390 -0.000000 0.000000
411
root 22.553442 32.602649 5.501895 37.026381 -86.726709 -4.099798
Spine -2.077603 -5.376225 -0.368144
Head -6.448319 -1.087366 5.049847
LeftShoulder 2.903171 22.349170 29.785845
LeftArm 92.581247 -2.803825 -77.334275
LeftForeArm -47.798787 -0.000000 32.987480
LeftHand 9.568801 -0.000000 -16.870789
LeftHandThumb1 -26.253704 0.000000 33.147579
RightShoulder 6.883432 21.674482 -24.600208
RightArm 45.807392 -3.602828 84.544744
RightForeArm 42.672279 -0.000000 39.277110
RightHand 7.590566 -0.000000 14.782170
RightHandThumb1 -24.326973 -0.000000 -32.862282
LeftUpLeg -38.897339 -2.048812 -0.415565
LeftLeg -0.105781 -0.000000 0.000000
LeftFoot 2.859516 8.003695 -13.108530
LeftToeBase -9.821880 -0.000000 0.000000
RightUpLeg -45.668260 4.232989 0.439843
RightLeg 10.841684 -0.000000 -0.000000
RightFoot 0.931869 -11.609627 4.344232
RightToeBase -5.436840 -0.000000 0.000000
412
root 22.620062 32.595332 5.493903 37.376443 -86.700363 -4.007872
Spine -2.064307 -5.349780 -0.359500
Head -6.839105 -1.093706 5.119719
LeftShoulder 2.854456 22.174323 30.018489
LeftArm 92.934700 -2.934108 -77.891127
LeftForeArm -48.399614 -0.000000 33.156660
LeftHand 9.304015 -0.000000 -17.434274
LeftHandThumb1 -26.253704 0.000000 33.147579
RightShoulder 6.939201 22.050614 -24.584787
RightArm 45.717501 -3.302223 84.467525
RightForeArm 44.221322 0.000000 39.815856
RightHand 8.035608 -0.000000 14.247131
RightHandThumb1 -24.326973 -0.000000 -32.862282
LeftUpLeg -39.539260 -2.319974 -0.186530
LeftLeg 0.057200 -0.000000 -0.000000
LeftFoot 2.779888 8.284886 -13.047663
LeftToeBase -9.805520 -0.000000 0.000000
RightUpLeg -46.041793 4.156698 0.475219
RightLeg 10.458252 -0.000000 -0.000000
RightFoot 1.125794 -11.564991 4.303595
RightToeBase -5.170671 -0.000000 0.000000
413
root 22.684672 32.585103 5.488536 37.074833 -86.682784 -3.303229
Spine -2.008841 -5.343988 -0.377539
Head -7.238433 -1.078447 5.151891
LeftShoulder 2.773100 21.963418 30.189158
LeftArm 93.270435 -3.031481 -78.355312
LeftForeArm -48.900271 -0.000000 33.140131
LeftHand 9.373102 -0.000000 -17.666676
LeftHandThumb1 -26.253704 0.000000 33.147579
RightShoulder 6.999140 22.390311 -24.581475
RightArm 45.629096 -3.058952 84.364482
RightForeArm 45.356577 -0.000000 40.283954
RightHand 8.196991 0.000000 13.998811
RightHandThumb1 -24.326973 -0.000000 -32.862282
LeftUpLeg -40.139484 -2.645670 0.039803
LeftLeg 0.220368 -0.000000 -0.000000
LeftFoot 2.655326 8.637468 -13.000019
LeftToeBase -9.687383 -0.000000 0.000000
RightUpLeg -46.433352 4.002779 0.535295
RightLeg 10.208221 -0.000000 -0.000000
RightFoot 1.294282 -11.457389 4.161194
RightToeBase -5.099835 -0.000000 0.000000
